<svg width="24" height="24" viewBox="0 0 24 24" fill="none" xmlns="http://www.w3.org/2000/svg">
<path d="M23.4488 14.2377L23.3839 14.1404C22.9623 13.5242 22.119 13.2972 21.4055 13.6215L17.2217 15.5999C17.2217 15.5675 17.2217 15.535 17.1893 15.535V15.5026C16.9298 14.8215 16.1839 14.3999 15.4379 14.5296C14.692 14.6594 13.2325 14.7567 11.9677 13.8161C10.3136 12.5837 8.3028 13.1675 7.13524 13.6864V12.8756C7.13524 12.5188 6.84334 12.2269 6.48659 12.2269H0.940641C0.583884 12.2269 0.291992 12.5188 0.291992 12.8756V21.535C0.291992 21.8918 0.583884 22.1837 0.940641 22.1837H6.48659C6.84334 22.1837 7.13524 21.8918 7.13524 21.535V20.8864H14.1731C14.8217 20.8864 15.4379 20.7242 15.9893 20.3999L22.9623 16.4431C23.3515 16.2161 23.6109 15.8594 23.7082 15.4377C23.7731 15.0161 23.7082 14.5945 23.4488 14.2377ZM5.83794 20.8864H1.58929V13.5567H5.83794V20.8864ZM22.4109 15.1458C22.4109 15.1783 22.3785 15.2431 22.2812 15.308L15.3406 19.2648C14.9839 19.4594 14.5623 19.5891 14.1731 19.5891H7.13524V15.1783C7.84875 14.7567 9.76226 13.8486 11.1893 14.8864C12.8433 16.1188 14.692 15.9891 15.665 15.8269C15.7947 15.7945 15.9244 15.8594 15.9893 15.9567V15.9891C16.0217 16.0864 15.9893 16.1513 15.9244 16.2161C15.892 16.2161 15.892 16.2485 15.8596 16.2485C15.2109 16.5404 14.1731 16.8648 13.0055 16.7026C12.6487 16.6702 12.3244 16.8972 12.292 17.254C12.2596 17.6107 12.4866 17.935 12.8433 17.9675C13.1028 17.9999 13.3623 17.9999 13.6217 17.9999C14.7569 17.9999 15.7298 17.6756 16.4109 17.3837C16.5082 17.3513 16.6055 17.2864 16.6704 17.2215L21.9893 14.7242C22.119 14.6594 22.2812 14.6918 22.346 14.8215L22.4109 14.9188C22.4433 15.0485 22.4433 15.1134 22.4109 15.1458Z" fill="white"/>
<path d="M15.0487 13.2324C18.2919 13.2324 20.9514 10.6702 20.9514 7.52427C20.9514 4.37832 18.2919 1.81616 15.0487 1.81616C11.8055 1.81616 9.146 4.37832 9.146 7.52427C9.17843 10.6702 11.8055 13.2324 15.0487 13.2324ZM15.0487 3.11346C17.5784 3.11346 19.6541 5.09184 19.6541 7.52427C19.6541 9.9567 17.5784 11.9351 15.0487 11.9351C12.519 11.9351 10.4433 9.9567 10.4433 7.52427C10.4433 5.09184 12.519 3.11346 15.0487 3.11346Z" fill="white"/>
<path d="M13.4597 10.1189H14.4327V10.5081C14.4327 10.8648 14.7245 11.1567 15.0813 11.1567C15.4381 11.1567 15.73 10.8648 15.73 10.5081V10.0216C16.3786 9.79455 16.8327 9.21077 16.8327 8.49725C16.8327 7.58914 16.0867 6.87563 15.1786 6.87563H14.984C14.7894 6.87563 14.6273 6.7459 14.6273 6.55131C14.6273 6.35671 14.7894 6.22698 14.984 6.22698H16.6705C17.0273 6.22698 17.3191 5.93509 17.3191 5.57833C17.3191 5.22158 17.0273 4.92968 16.6705 4.92968H15.6975V4.54049C15.6975 4.18374 15.4056 3.89185 15.0489 3.89185C14.6921 3.89185 14.4002 4.18374 14.4002 4.54049V5.02698C13.7516 5.25401 13.2975 5.83779 13.2975 6.55131C13.2975 7.45941 14.0435 8.17293 14.9516 8.17293H15.1462C15.3408 8.17293 15.5029 8.30266 15.5029 8.49725C15.5029 8.69185 15.3408 8.82158 15.1462 8.82158H13.4597C13.1029 8.82158 12.811 9.11347 12.811 9.47022C12.811 9.82698 13.1029 10.1189 13.4597 10.1189Z" fill="white"/>
</svg>
