<svg width="21" height="20" viewBox="0 0 21 20" fill="none" xmlns="http://www.w3.org/2000/svg">
<path fill-rule="evenodd" clip-rule="evenodd" d="M16.0029 15.3085C15.2185 15.3085 14.4807 15.0034 13.9257 14.4483L10.9152 11.4379C10.7053 11.2279 10.3382 11.2272 10.1273 11.4379L7.12797 14.4374C6.57293 14.9923 5.8352 15.2975 5.05066 15.2975H4.68945L8.49887 19.1069C9.68539 20.2934 11.6088 20.2934 12.7953 19.1069L16.5937 15.3085H16.0029V15.3085ZM11.8995 18.2119C11.5655 18.5451 11.1209 18.7295 10.6475 18.7295H10.6467C10.1733 18.7295 9.72789 18.5451 9.39477 18.2119L7.17387 15.991C7.48148 15.8108 7.76625 15.5907 8.02379 15.3332L10.5218 12.8352L13.0307 15.3442C13.3291 15.6434 13.6631 15.8916 14.026 16.0845L11.8995 18.2119V18.2119ZM12.7954 0.889863C11.6089 -0.296621 9.68547 -0.296621 8.49895 0.889863L4.68957 4.69924H5.05078C5.83523 4.69924 6.57305 5.00525 7.12805 5.55939L10.1274 8.55881C10.345 8.77725 10.6986 8.77639 10.9153 8.55881L13.9258 5.54834C14.4808 4.99416 15.2186 4.68818 16.003 4.68818H16.5938L12.7954 0.889863V0.889863ZM13.0308 4.65338L10.5218 7.16236L8.02301 4.66354C7.76547 4.40604 7.4816 4.18674 7.17395 4.00658L9.39477 1.78482C10.0858 1.09557 11.2102 1.09467 11.8995 1.78482L14.0261 3.91221C13.6631 4.106 13.3291 4.3542 13.0308 4.65338H13.0308V4.65338Z" fill="#333333"/>
<path fill-rule="evenodd" clip-rule="evenodd" d="M19.7558 7.85042L17.4754 5.57007H16.0025C15.462 5.57007 14.9324 5.79019 14.55 6.17265L11.5395 9.18315C11.2582 9.46362 10.8902 9.60386 10.5213 9.60386C10.1524 9.60386 9.78357 9.46362 9.50307 9.18315L6.50365 6.18374C6.12115 5.80038 5.5917 5.58112 5.05025 5.58112H3.80768L1.5383 7.85042C0.351816 9.03694 0.351816 10.9603 1.5383 12.1468L3.80764 14.4153L5.05021 14.4162C5.59162 14.4162 6.12115 14.196 6.50365 13.8136L9.50303 10.815C10.047 10.2702 10.9955 10.2711 11.5395 10.8142L14.5499 13.8246C14.9324 14.2071 15.4619 14.4264 16.0025 14.4264H17.4754L19.7558 12.1468C20.9423 10.9603 20.9423 9.03694 19.7558 7.85042H19.7558ZM5.60779 12.9178C5.4608 13.0657 5.2585 13.1489 5.05025 13.1489H4.33213L2.43408 11.2519C1.74311 10.5608 1.74311 9.4364 2.43408 8.74628L4.33205 6.84753H5.05021C5.25846 6.84753 5.46076 6.93167 5.60861 7.0787L8.52814 9.99823L5.60779 12.9178V12.9178ZM18.86 11.2519L16.9519 13.1608H16.0025C15.7951 13.1608 15.592 13.0767 15.4458 12.9296L12.5152 9.99823L15.4458 7.06765C15.592 6.92062 15.7951 6.83647 16.0025 6.83647H16.9519L18.86 8.74628C19.1949 9.0803 19.3785 9.52479 19.3785 9.99823C19.3785 10.4725 19.1949 10.917 18.86 11.2519H18.86Z" fill="#333333"/>
</svg>
